<mxfile host="app.diagrams.net" modified="2020-10-24T18:43:44.004Z" agent="5.0 (X11; Linux x86_64) AppleWebKit/537.36 (KHTML, like Gecko) Chrome/86.0.4240.101 Safari/537.36" etag="07AxfV6fF7exoBUOWMMD" version="13.8.1" type="github">
  <diagram id="R2lEEEUBdFMjLlhIrx00" name="Page-1">
    <mxGraphModel dx="834" dy="467" grid="1" gridSize="10" guides="1" tooltips="1" connect="1" arrows="1" fold="1" page="1" pageScale="1" pageWidth="850" pageHeight="1100" background="#283618" math="0" shadow="0" extFonts="Permanent Marker^https://fonts.googleapis.com/css?family=Permanent+Marker">
      <root>
        <mxCell id="0" />
        <mxCell id="1" parent="0" />
        <mxCell id="C-vyLk0tnHw3VtMMgP7b-1" value="" style="edgeStyle=entityRelationEdgeStyle;endArrow=ERzeroToMany;startArrow=ERone;endFill=1;startFill=0;entryX=0;entryY=0.5;entryDx=0;entryDy=0;strokeColor=#DDA15E;fontColor=#FEFAE0;labelBackgroundColor=#283618;curved=1;" parent="1" source="C-vyLk0tnHw3VtMMgP7b-24" target="C-vyLk0tnHw3VtMMgP7b-6" edge="1">
          <mxGeometry width="100" height="100" relative="1" as="geometry">
            <mxPoint x="340" y="720" as="sourcePoint" />
            <mxPoint x="380" y="210" as="targetPoint" />
          </mxGeometry>
        </mxCell>
        <mxCell id="C-vyLk0tnHw3VtMMgP7b-2" value="Pedidos" style="shape=table;startSize=30;container=1;collapsible=1;childLayout=tableLayout;fixedRows=2;rowLines=0;fontStyle=1;align=center;resizeLast=1;fillColor=#BC6C25;strokeColor=#DDA15E;fontColor=#FEFAE0;rounded=1;" parent="1" vertex="1">
          <mxGeometry x="450" y="120" width="260" height="388" as="geometry" />
        </mxCell>
        <mxCell id="C-vyLk0tnHw3VtMMgP7b-3" value="" style="shape=partialRectangle;collapsible=0;dropTarget=0;pointerEvents=0;fillColor=none;points=[[0,0.5],[1,0.5]];portConstraint=eastwest;top=0;left=0;right=0;bottom=1;strokeColor=#DDA15E;fontColor=#FEFAE0;rounded=1;" parent="C-vyLk0tnHw3VtMMgP7b-2" vertex="1">
          <mxGeometry y="30" width="260" height="53" as="geometry" />
        </mxCell>
        <mxCell id="C-vyLk0tnHw3VtMMgP7b-4" value="PK" style="shape=partialRectangle;overflow=hidden;connectable=0;fillColor=none;top=0;left=0;bottom=0;right=0;fontStyle=1;strokeColor=#DDA15E;fontColor=#FEFAE0;rounded=1;" parent="C-vyLk0tnHw3VtMMgP7b-3" vertex="1">
          <mxGeometry width="30" height="53" as="geometry" />
        </mxCell>
        <mxCell id="C-vyLk0tnHw3VtMMgP7b-5" value="idpedido int NOT NULL" style="shape=partialRectangle;overflow=hidden;connectable=0;fillColor=none;top=0;left=0;bottom=0;right=0;align=left;spacingLeft=6;fontStyle=5;strokeColor=#DDA15E;fontColor=#FEFAE0;rounded=1;" parent="C-vyLk0tnHw3VtMMgP7b-3" vertex="1">
          <mxGeometry x="30" width="230" height="53" as="geometry" />
        </mxCell>
        <mxCell id="C-vyLk0tnHw3VtMMgP7b-9" value="" style="shape=partialRectangle;collapsible=0;dropTarget=0;pointerEvents=0;fillColor=none;points=[[0,0.5],[1,0.5]];portConstraint=eastwest;top=0;left=0;right=0;bottom=0;strokeColor=#DDA15E;fontColor=#FEFAE0;rounded=1;" parent="C-vyLk0tnHw3VtMMgP7b-2" vertex="1">
          <mxGeometry y="83" width="260" height="34" as="geometry" />
        </mxCell>
        <mxCell id="C-vyLk0tnHw3VtMMgP7b-10" value="" style="shape=partialRectangle;overflow=hidden;connectable=0;fillColor=none;top=0;left=0;bottom=0;right=0;strokeColor=#DDA15E;fontColor=#FEFAE0;rounded=1;" parent="C-vyLk0tnHw3VtMMgP7b-9" vertex="1">
          <mxGeometry width="30" height="34" as="geometry" />
        </mxCell>
        <mxCell id="C-vyLk0tnHw3VtMMgP7b-11" value="nomecompleto varchar(45) NOT NULL" style="shape=partialRectangle;overflow=hidden;connectable=0;fillColor=none;top=0;left=0;bottom=0;right=0;align=left;spacingLeft=6;strokeColor=#DDA15E;fontColor=#FEFAE0;rounded=1;" parent="C-vyLk0tnHw3VtMMgP7b-9" vertex="1">
          <mxGeometry x="30" width="230" height="34" as="geometry" />
        </mxCell>
        <mxCell id="yO7iGHgxlLwlcD08x6id-41" value="" style="shape=partialRectangle;collapsible=0;dropTarget=0;pointerEvents=0;fillColor=none;points=[[0,0.5],[1,0.5]];portConstraint=eastwest;top=0;left=0;right=0;bottom=0;strokeColor=#DDA15E;fontColor=#FEFAE0;rounded=1;" vertex="1" parent="C-vyLk0tnHw3VtMMgP7b-2">
          <mxGeometry y="117" width="260" height="34" as="geometry" />
        </mxCell>
        <mxCell id="yO7iGHgxlLwlcD08x6id-42" value="" style="shape=partialRectangle;overflow=hidden;connectable=0;fillColor=none;top=0;left=0;bottom=0;right=0;strokeColor=#DDA15E;fontColor=#FEFAE0;rounded=1;" vertex="1" parent="yO7iGHgxlLwlcD08x6id-41">
          <mxGeometry width="30" height="34" as="geometry" />
        </mxCell>
        <mxCell id="yO7iGHgxlLwlcD08x6id-43" value="endereco varchar(50) NOT NULL" style="shape=partialRectangle;overflow=hidden;connectable=0;fillColor=none;top=0;left=0;bottom=0;right=0;align=left;spacingLeft=6;strokeColor=#DDA15E;fontColor=#FEFAE0;rounded=1;" vertex="1" parent="yO7iGHgxlLwlcD08x6id-41">
          <mxGeometry x="30" width="230" height="34" as="geometry" />
        </mxCell>
        <mxCell id="yO7iGHgxlLwlcD08x6id-16" value="" style="shape=partialRectangle;collapsible=0;dropTarget=0;pointerEvents=0;fillColor=none;points=[[0,0.5],[1,0.5]];portConstraint=eastwest;top=0;left=0;right=0;bottom=0;strokeColor=#DDA15E;fontColor=#FEFAE0;rounded=1;" vertex="1" parent="C-vyLk0tnHw3VtMMgP7b-2">
          <mxGeometry y="151" width="260" height="34" as="geometry" />
        </mxCell>
        <mxCell id="yO7iGHgxlLwlcD08x6id-17" value="" style="shape=partialRectangle;overflow=hidden;connectable=0;fillColor=none;top=0;left=0;bottom=0;right=0;strokeColor=#DDA15E;fontColor=#FEFAE0;rounded=1;" vertex="1" parent="yO7iGHgxlLwlcD08x6id-16">
          <mxGeometry width="30" height="34" as="geometry" />
        </mxCell>
        <mxCell id="yO7iGHgxlLwlcD08x6id-18" value="complemento varchar(50)" style="shape=partialRectangle;overflow=hidden;connectable=0;fillColor=none;top=0;left=0;bottom=0;right=0;align=left;spacingLeft=6;strokeColor=#DDA15E;fontColor=#FEFAE0;rounded=1;" vertex="1" parent="yO7iGHgxlLwlcD08x6id-16">
          <mxGeometry x="30" width="230" height="34" as="geometry" />
        </mxCell>
        <mxCell id="yO7iGHgxlLwlcD08x6id-19" value="" style="shape=partialRectangle;collapsible=0;dropTarget=0;pointerEvents=0;fillColor=none;points=[[0,0.5],[1,0.5]];portConstraint=eastwest;top=0;left=0;right=0;bottom=0;strokeColor=#DDA15E;fontColor=#FEFAE0;rounded=1;" vertex="1" parent="C-vyLk0tnHw3VtMMgP7b-2">
          <mxGeometry y="185" width="260" height="34" as="geometry" />
        </mxCell>
        <mxCell id="yO7iGHgxlLwlcD08x6id-20" value="" style="shape=partialRectangle;overflow=hidden;connectable=0;fillColor=none;top=0;left=0;bottom=0;right=0;strokeColor=#DDA15E;fontColor=#FEFAE0;rounded=1;" vertex="1" parent="yO7iGHgxlLwlcD08x6id-19">
          <mxGeometry width="30" height="34" as="geometry" />
        </mxCell>
        <mxCell id="yO7iGHgxlLwlcD08x6id-21" value="telefone bigintÂ " style="shape=partialRectangle;overflow=hidden;connectable=0;fillColor=none;top=0;left=0;bottom=0;right=0;align=left;spacingLeft=6;strokeColor=#DDA15E;fontColor=#FEFAE0;rounded=1;" vertex="1" parent="yO7iGHgxlLwlcD08x6id-19">
          <mxGeometry x="30" width="230" height="34" as="geometry" />
        </mxCell>
        <mxCell id="C-vyLk0tnHw3VtMMgP7b-6" value="" style="shape=partialRectangle;collapsible=0;dropTarget=0;pointerEvents=0;fillColor=none;points=[[0,0.5],[1,0.5]];portConstraint=eastwest;top=0;left=0;right=0;bottom=0;strokeColor=#DDA15E;fontColor=#FEFAE0;rounded=1;" parent="C-vyLk0tnHw3VtMMgP7b-2" vertex="1">
          <mxGeometry y="219" width="260" height="33" as="geometry" />
        </mxCell>
        <mxCell id="C-vyLk0tnHw3VtMMgP7b-7" value="FK" style="shape=partialRectangle;overflow=hidden;connectable=0;fillColor=none;top=0;left=0;bottom=0;right=0;strokeColor=#DDA15E;rounded=1;fontColor=#FFFF00;" parent="C-vyLk0tnHw3VtMMgP7b-6" vertex="1">
          <mxGeometry width="30" height="33" as="geometry" />
        </mxCell>
        <mxCell id="C-vyLk0tnHw3VtMMgP7b-8" value="produto int" style="shape=partialRectangle;overflow=hidden;connectable=0;fillColor=none;top=0;left=0;bottom=0;right=0;align=left;spacingLeft=6;strokeColor=#DDA15E;rounded=1;fontColor=#FFFF00;" parent="C-vyLk0tnHw3VtMMgP7b-6" vertex="1">
          <mxGeometry x="30" width="230" height="33" as="geometry" />
        </mxCell>
        <mxCell id="yO7iGHgxlLwlcD08x6id-44" value="" style="shape=partialRectangle;collapsible=0;dropTarget=0;pointerEvents=0;fillColor=none;points=[[0,0.5],[1,0.5]];portConstraint=eastwest;top=0;left=0;right=0;bottom=0;strokeColor=#DDA15E;fontColor=#FEFAE0;rounded=1;" vertex="1" parent="C-vyLk0tnHw3VtMMgP7b-2">
          <mxGeometry y="252" width="260" height="34" as="geometry" />
        </mxCell>
        <mxCell id="yO7iGHgxlLwlcD08x6id-45" value="" style="shape=partialRectangle;overflow=hidden;connectable=0;fillColor=none;top=0;left=0;bottom=0;right=0;strokeColor=#DDA15E;fontColor=#FEFAE0;rounded=1;" vertex="1" parent="yO7iGHgxlLwlcD08x6id-44">
          <mxGeometry width="30" height="34" as="geometry" />
        </mxCell>
        <mxCell id="yO7iGHgxlLwlcD08x6id-46" value="descricaopedido varchar(150) NOT NULL" style="shape=partialRectangle;overflow=hidden;connectable=0;fillColor=none;top=0;left=0;bottom=0;right=0;align=left;spacingLeft=6;strokeColor=#DDA15E;fontColor=#FEFAE0;rounded=1;" vertex="1" parent="yO7iGHgxlLwlcD08x6id-44">
          <mxGeometry x="30" width="230" height="34" as="geometry" />
        </mxCell>
        <mxCell id="yO7iGHgxlLwlcD08x6id-47" value="" style="shape=partialRectangle;collapsible=0;dropTarget=0;pointerEvents=0;fillColor=none;points=[[0,0.5],[1,0.5]];portConstraint=eastwest;top=0;left=0;right=0;bottom=0;strokeColor=#DDA15E;fontColor=#FEFAE0;rounded=1;" vertex="1" parent="C-vyLk0tnHw3VtMMgP7b-2">
          <mxGeometry y="286" width="260" height="34" as="geometry" />
        </mxCell>
        <mxCell id="yO7iGHgxlLwlcD08x6id-48" value="" style="shape=partialRectangle;overflow=hidden;connectable=0;fillColor=none;top=0;left=0;bottom=0;right=0;strokeColor=#DDA15E;fontColor=#FEFAE0;rounded=1;" vertex="1" parent="yO7iGHgxlLwlcD08x6id-47">
          <mxGeometry width="30" height="34" as="geometry" />
        </mxCell>
        <mxCell id="yO7iGHgxlLwlcD08x6id-49" value="quantidade int NOT NULL" style="shape=partialRectangle;overflow=hidden;connectable=0;fillColor=none;top=0;left=0;bottom=0;right=0;align=left;spacingLeft=6;strokeColor=#DDA15E;fontColor=#FEFAE0;rounded=1;" vertex="1" parent="yO7iGHgxlLwlcD08x6id-47">
          <mxGeometry x="30" width="230" height="34" as="geometry" />
        </mxCell>
        <mxCell id="yO7iGHgxlLwlcD08x6id-51" value="" style="shape=partialRectangle;collapsible=0;dropTarget=0;pointerEvents=0;fillColor=none;points=[[0,0.5],[1,0.5]];portConstraint=eastwest;top=0;left=0;right=0;bottom=0;strokeColor=#DDA15E;fontColor=#FEFAE0;rounded=1;" vertex="1" parent="C-vyLk0tnHw3VtMMgP7b-2">
          <mxGeometry y="320" width="260" height="34" as="geometry" />
        </mxCell>
        <mxCell id="yO7iGHgxlLwlcD08x6id-52" value="" style="shape=partialRectangle;overflow=hidden;connectable=0;fillColor=none;top=0;left=0;bottom=0;right=0;strokeColor=#DDA15E;fontColor=#FEFAE0;rounded=1;" vertex="1" parent="yO7iGHgxlLwlcD08x6id-51">
          <mxGeometry width="30" height="34" as="geometry" />
        </mxCell>
        <mxCell id="yO7iGHgxlLwlcD08x6id-53" value="valorunitario decimal(8,2) NOT NULL" style="shape=partialRectangle;overflow=hidden;connectable=0;fillColor=none;top=0;left=0;bottom=0;right=0;align=left;spacingLeft=6;strokeColor=#DDA15E;fontColor=#FEFAE0;rounded=1;" vertex="1" parent="yO7iGHgxlLwlcD08x6id-51">
          <mxGeometry x="30" width="230" height="34" as="geometry" />
        </mxCell>
        <mxCell id="yO7iGHgxlLwlcD08x6id-54" value="" style="shape=partialRectangle;collapsible=0;dropTarget=0;pointerEvents=0;fillColor=none;points=[[0,0.5],[1,0.5]];portConstraint=eastwest;top=0;left=0;right=0;bottom=0;strokeColor=#DDA15E;fontColor=#FEFAE0;rounded=1;" vertex="1" parent="C-vyLk0tnHw3VtMMgP7b-2">
          <mxGeometry y="354" width="260" height="34" as="geometry" />
        </mxCell>
        <mxCell id="yO7iGHgxlLwlcD08x6id-55" value="" style="shape=partialRectangle;overflow=hidden;connectable=0;fillColor=none;top=0;left=0;bottom=0;right=0;strokeColor=#DDA15E;fontColor=#FEFAE0;rounded=1;" vertex="1" parent="yO7iGHgxlLwlcD08x6id-54">
          <mxGeometry width="30" height="34" as="geometry" />
        </mxCell>
        <mxCell id="yO7iGHgxlLwlcD08x6id-56" value="valortotal decimal(8,2) NOT NULL" style="shape=partialRectangle;overflow=hidden;connectable=0;fillColor=none;top=0;left=0;bottom=0;right=0;align=left;spacingLeft=6;strokeColor=#DDA15E;fontColor=#FEFAE0;rounded=1;" vertex="1" parent="yO7iGHgxlLwlcD08x6id-54">
          <mxGeometry x="30" width="230" height="34" as="geometry" />
        </mxCell>
        <mxCell id="C-vyLk0tnHw3VtMMgP7b-23" value="Produtos" style="shape=table;startSize=30;container=1;collapsible=1;childLayout=tableLayout;fixedRows=1;rowLines=0;fontStyle=1;align=center;resizeLast=1;fillColor=#BC6C25;strokeColor=#DDA15E;fontColor=#FEFAE0;rounded=1;" parent="1" vertex="1">
          <mxGeometry x="120" y="120" width="250" height="220" as="geometry" />
        </mxCell>
        <mxCell id="C-vyLk0tnHw3VtMMgP7b-24" value="" style="shape=partialRectangle;collapsible=0;dropTarget=0;pointerEvents=0;fillColor=none;points=[[0,0.5],[1,0.5]];portConstraint=eastwest;top=0;left=0;right=0;bottom=1;strokeColor=#DDA15E;fontColor=#FEFAE0;rounded=1;" parent="C-vyLk0tnHw3VtMMgP7b-23" vertex="1">
          <mxGeometry y="30" width="250" height="30" as="geometry" />
        </mxCell>
        <mxCell id="C-vyLk0tnHw3VtMMgP7b-25" value="PK" style="shape=partialRectangle;overflow=hidden;connectable=0;fillColor=none;top=0;left=0;bottom=0;right=0;fontStyle=1;strokeColor=#DDA15E;fontColor=#FEFAE0;rounded=1;" parent="C-vyLk0tnHw3VtMMgP7b-24" vertex="1">
          <mxGeometry width="30" height="30" as="geometry" />
        </mxCell>
        <mxCell id="C-vyLk0tnHw3VtMMgP7b-26" value="idproduto int NOT NULL" style="shape=partialRectangle;overflow=hidden;connectable=0;fillColor=none;top=0;left=0;bottom=0;right=0;align=left;spacingLeft=6;fontStyle=5;strokeColor=#DDA15E;fontColor=#FEFAE0;rounded=1;" parent="C-vyLk0tnHw3VtMMgP7b-24" vertex="1">
          <mxGeometry x="30" width="220" height="30" as="geometry" />
        </mxCell>
        <mxCell id="C-vyLk0tnHw3VtMMgP7b-27" value="" style="shape=partialRectangle;collapsible=0;dropTarget=0;pointerEvents=0;fillColor=none;points=[[0,0.5],[1,0.5]];portConstraint=eastwest;top=0;left=0;right=0;bottom=0;strokeColor=#DDA15E;fontColor=#FEFAE0;rounded=1;" parent="C-vyLk0tnHw3VtMMgP7b-23" vertex="1">
          <mxGeometry y="60" width="250" height="30" as="geometry" />
        </mxCell>
        <mxCell id="C-vyLk0tnHw3VtMMgP7b-28" value="" style="shape=partialRectangle;overflow=hidden;connectable=0;fillColor=none;top=0;left=0;bottom=0;right=0;strokeColor=#DDA15E;fontColor=#FEFAE0;rounded=1;" parent="C-vyLk0tnHw3VtMMgP7b-27" vertex="1">
          <mxGeometry width="30" height="30" as="geometry" />
        </mxCell>
        <mxCell id="C-vyLk0tnHw3VtMMgP7b-29" value="categoria varchar(45) NOT NULL" style="shape=partialRectangle;overflow=hidden;connectable=0;fillColor=none;top=0;left=0;bottom=0;right=0;align=left;spacingLeft=6;strokeColor=#DDA15E;fontColor=#FEFAE0;rounded=1;" parent="C-vyLk0tnHw3VtMMgP7b-27" vertex="1">
          <mxGeometry x="30" width="220" height="30" as="geometry" />
        </mxCell>
        <mxCell id="yO7iGHgxlLwlcD08x6id-1" value="" style="shape=partialRectangle;collapsible=0;dropTarget=0;pointerEvents=0;fillColor=none;points=[[0,0.5],[1,0.5]];portConstraint=eastwest;top=0;left=0;right=0;bottom=0;strokeColor=#DDA15E;fontColor=#FEFAE0;rounded=1;" vertex="1" parent="C-vyLk0tnHw3VtMMgP7b-23">
          <mxGeometry y="90" width="250" height="30" as="geometry" />
        </mxCell>
        <mxCell id="yO7iGHgxlLwlcD08x6id-2" value="" style="shape=partialRectangle;overflow=hidden;connectable=0;fillColor=none;top=0;left=0;bottom=0;right=0;strokeColor=#DDA15E;fontColor=#FEFAE0;rounded=1;" vertex="1" parent="yO7iGHgxlLwlcD08x6id-1">
          <mxGeometry width="30" height="30" as="geometry" />
        </mxCell>
        <mxCell id="yO7iGHgxlLwlcD08x6id-3" value="descricao varchar(150) NOT NULL" style="shape=partialRectangle;overflow=hidden;connectable=0;fillColor=none;top=0;left=0;bottom=0;right=0;align=left;spacingLeft=6;strokeColor=#DDA15E;fontColor=#FEFAE0;rounded=1;" vertex="1" parent="yO7iGHgxlLwlcD08x6id-1">
          <mxGeometry x="30" width="220" height="30" as="geometry" />
        </mxCell>
        <mxCell id="yO7iGHgxlLwlcD08x6id-7" value="" style="shape=partialRectangle;collapsible=0;dropTarget=0;pointerEvents=0;fillColor=none;points=[[0,0.5],[1,0.5]];portConstraint=eastwest;top=0;left=0;right=0;bottom=0;strokeColor=#DDA15E;fontColor=#FEFAE0;rounded=1;" vertex="1" parent="C-vyLk0tnHw3VtMMgP7b-23">
          <mxGeometry y="120" width="250" height="30" as="geometry" />
        </mxCell>
        <mxCell id="yO7iGHgxlLwlcD08x6id-8" value="" style="shape=partialRectangle;overflow=hidden;connectable=0;fillColor=none;top=0;left=0;bottom=0;right=0;strokeColor=#DDA15E;fontColor=#FEFAE0;rounded=1;" vertex="1" parent="yO7iGHgxlLwlcD08x6id-7">
          <mxGeometry width="30" height="30" as="geometry" />
        </mxCell>
        <mxCell id="yO7iGHgxlLwlcD08x6id-9" value="preco decimal(8,2)" style="shape=partialRectangle;overflow=hidden;connectable=0;fillColor=none;top=0;left=0;bottom=0;right=0;align=left;spacingLeft=6;strokeColor=#DDA15E;fontColor=#FEFAE0;rounded=1;" vertex="1" parent="yO7iGHgxlLwlcD08x6id-7">
          <mxGeometry x="30" width="220" height="30" as="geometry" />
        </mxCell>
        <mxCell id="yO7iGHgxlLwlcD08x6id-10" value="" style="shape=partialRectangle;collapsible=0;dropTarget=0;pointerEvents=0;fillColor=none;points=[[0,0.5],[1,0.5]];portConstraint=eastwest;top=0;left=0;right=0;bottom=0;strokeColor=#DDA15E;fontColor=#FEFAE0;rounded=1;" vertex="1" parent="C-vyLk0tnHw3VtMMgP7b-23">
          <mxGeometry y="150" width="250" height="30" as="geometry" />
        </mxCell>
        <mxCell id="yO7iGHgxlLwlcD08x6id-11" value="" style="shape=partialRectangle;overflow=hidden;connectable=0;fillColor=none;top=0;left=0;bottom=0;right=0;strokeColor=#DDA15E;fontColor=#FEFAE0;rounded=1;" vertex="1" parent="yO7iGHgxlLwlcD08x6id-10">
          <mxGeometry width="30" height="30" as="geometry" />
        </mxCell>
        <mxCell id="yO7iGHgxlLwlcD08x6id-12" value="precofinal decimal (8,2)" style="shape=partialRectangle;overflow=hidden;connectable=0;fillColor=none;top=0;left=0;bottom=0;right=0;align=left;spacingLeft=6;strokeColor=#DDA15E;fontColor=#FEFAE0;rounded=1;" vertex="1" parent="yO7iGHgxlLwlcD08x6id-10">
          <mxGeometry x="30" width="220" height="30" as="geometry" />
        </mxCell>
        <mxCell id="yO7iGHgxlLwlcD08x6id-13" value="" style="shape=partialRectangle;collapsible=0;dropTarget=0;pointerEvents=0;fillColor=none;points=[[0,0.5],[1,0.5]];portConstraint=eastwest;top=0;left=0;right=0;bottom=0;strokeColor=#DDA15E;fontColor=#FEFAE0;rounded=1;" vertex="1" parent="C-vyLk0tnHw3VtMMgP7b-23">
          <mxGeometry y="180" width="250" height="30" as="geometry" />
        </mxCell>
        <mxCell id="yO7iGHgxlLwlcD08x6id-14" value="" style="shape=partialRectangle;overflow=hidden;connectable=0;fillColor=none;top=0;left=0;bottom=0;right=0;strokeColor=#DDA15E;fontColor=#FEFAE0;rounded=1;" vertex="1" parent="yO7iGHgxlLwlcD08x6id-13">
          <mxGeometry width="30" height="30" as="geometry" />
        </mxCell>
        <mxCell id="yO7iGHgxlLwlcD08x6id-15" value="imagens varchar(255)Â  UNIQUE" style="shape=partialRectangle;overflow=hidden;connectable=0;fillColor=none;top=0;left=0;bottom=0;right=0;align=left;spacingLeft=6;strokeColor=#DDA15E;fontColor=#FEFAE0;rounded=1;" vertex="1" parent="yO7iGHgxlLwlcD08x6id-13">
          <mxGeometry x="30" width="220" height="30" as="geometry" />
        </mxCell>
      </root>
    </mxGraphModel>
  </diagram>
</mxfile>
